<svg xmlns="http://www.w3.org/2000/svg" version="1.1" xmlns:xlink="http://www.w3.org/1999/xlink" xmlns:svgjs="http://svgjs.dev/svgjs" width="128" height="128" viewBox="0 0 128 128"><g transform="matrix(0.8046875,0,0,0.8046875,12.33908641405425,28.22779310983381)"><svg viewBox="0 0 96 67" data-background-color="#ffffff" preserveAspectRatio="xMidYMid meet" height="89" width="128" xmlns="http://www.w3.org/2000/svg" xmlns:xlink="http://www.w3.org/1999/xlink"><g id="tight-bounds" transform="matrix(1,0,0,1,0.25954092891410596,0.0813069417258987)"><svg viewBox="0 0 95.481 66.83670000000096" height="66.83670000000096" width="95.481"><g><svg viewBox="0 0 95.481 66.83670000000096" height="66.83670000000096" width="95.481"><g><svg viewBox="0 0 95.481 66.83670000000096" height="66.83670000000096" width="95.481"><g id="textblocktransform"><svg viewBox="0 0 95.481 66.83670000000096" height="66.83670000000096" width="95.481" id="textblock"><g><svg viewBox="0 0 95.481 66.83670000000096" height="66.83670000000096" width="95.481"><g><svg viewBox="0 0 95.481 66.83670000000096" height="66.83670000000096" width="95.481"><g><svg xmlns="http://www.w3.org/2000/svg" viewBox="5.12 18.620000000000005 90 63.00000000000091" x="0" y="0" height="66.83670000000096" width="95.481" class="icon-icon-0" data-fill-palette-color="accent" id="icon-0"><g data-name="Livello 26" fill="#da1616" data-fill-palette-color="accent"><path d="M95.12 50.12v4.5a27 27 0 0 0-27 27h-4.5A31.55 31.55 0 0 1 95.12 50.12Zm-18 31.5h4.5a13.52 13.52 0 0 1 13.5-13.5v-4.5A18 18 0 0 0 77.12 81.62Zm-36-44.37L63.66 50.12 41.12 63Zm4.5 18l9-5.13-9-5.12Zm45 26.37h4.5v-4.5h-4.5Zm-6.74-63H16.38A11.27 11.27 0 0 0 5.12 29.87v40.5A11.26 11.26 0 0 0 16.38 81.62H54.62v-4.5H16.38a6.76 6.76 0 0 1-6.76-6.75V29.87a6.76 6.76 0 0 1 6.76-6.75h67.5a6.75 6.75 0 0 1 6.74 6.75V41.12h4.5V29.87A11.26 11.26 0 0 0 83.88 18.62Z" fill="#da1616" data-fill-palette-color="accent"></path></g></svg></g></svg></g></svg></g></svg></g></svg></g></svg></g><defs></defs></svg><rect width="95.481" height="66.83670000000096" fill="none" stroke="none" visibility="hidden"></rect></g></svg></g></svg>