<svg xmlns="http://www.w3.org/2000/svg" version="1.1" xmlns:xlink="http://www.w3.org/1999/xlink" xmlns:svgjs="http://svgjs.dev/svgjs" width="2000" height="2250" viewBox="0 0 2000 2250"><g transform="matrix(1,0,0,1,0.00014687500004129106,0)"><svg viewBox="0 0 320 360" data-background-color="#ffffff" preserveAspectRatio="xMidYMid meet" height="2250" width="2000" xmlns="http://www.w3.org/2000/svg" xmlns:xlink="http://www.w3.org/1999/xlink"><g id="tight-bounds" transform="matrix(1,0,0,1,0.000023499999997511622,0)"><svg viewBox="0 0 320 360" height="360" width="320"><g><svg></svg></g><g><svg viewBox="0 0 320 360" height="360" width="320"><g><path transform="translate(-74.99272,-51.79039) scale(4.65793,4.65793)" d="M20.6 59.9l0.8 1-0.4-1.3c-0.1-0.6-0.8 0.1-0.4 0.3M21.5 59.3c0.3 0.5 0.6 1 0.6 1.5 0 0.7 0.6 1 1.1 1.2-0.7-0.8-1.1-3-1.7-2.7M59.9 16.9c1.7 0 3.3-0.2 5.1 0.2 4.4 1.1 8.1 3.3 10.6 6.4l7 11.2c0.3 2.8 0.9 5.9 0.8 9.3 0.7 0 0.6-1 1.4-1.2-0.8 2-1.2 4.5-1.4 7.4-0.5-1.6 0-4 0.1-5.3-0.7 1.1-1.1 0.3-1.1-0.2 0.1-0.8-0.3-0.7-0.6-1-1.1-1-1.8-2.1-2.6-3.8 0.5-1.3 0.6-3.2-1-4.2-0.5-0.3-1.1-0.8-1.4-1.6-0.4-1.1-1.1-2.4-0.9-4.1 0.1-0.5-1.5 1.1-2.4 0.4-3.9-2.7-7.8-5.8-12.5-8.4-2.5 0-4.3-0.9-5.2-2-0.8-1-0.2-2.3 1-2.4 0.7 0 1.5-0.2 2.1 0.2 0.1-0.4 0.5-0.9 1-0.9M50 14.6l0.2 0.1c1 0.2 1.5 1.6 2.6 1.1 0 0.7 0.1 1.4-0.1 1.9-0.3 0.8-1.2 0.8-1.9 0.8-6.7-0.4-10.6 2.4-14.7 4.8-1.1 0.7-2.3 1.2-3.2 2.1-4.3 4-9 7.7-10.1 15.1l-0.9 8.2c-0.1 0.9-1.1 1.8-0.9 2.9l0.7 4.9c-0.7-0.7-1.1 0.2-0.9 0.6 0.1 0.3 0.5 1.3 1.1 0.4 0.8 1.5 1.6 4.4 2.7 5.7 3.4 4 7.8 7.6 11.4 11.2 0.9-0.2 1.6-0.2 1.8-0.8 0.3 0.6-0.3 1.2-0.8 1.3 1.6 1 3.4 1.9 5.8 2.1 3.1 0.2 6 0.7 8.7 1.4 1.4-0.4 2.8-0.6 4.3-0.7 0.5 0 0.8-0.8 1.4-1l0.1-1c0.6 0.9 0.5-0.3 0.1-0.9 0.7 0.6 0.9 1.1 1.2 1.5 0-0.3 0.8-1.4 0.8-0.1l0.2-1.3c0.3-0.2 0.4 1.1 0.7 0.2 0.3-0.9 0.9-0.2 1.5-0.5-0.2 0.4-0.1 1.2 0.6 0.7l0.8-0.7c0.5 1.2 1.3 0.7 1.7 0.5 4.4-2.8 8.8-6.1 13-9.4l-0.1 1.3 0.5-1.6c0.5 0.5 0.9 0.1 1.1-0.2 0.6-1 1.4-2 2.7-2.9-1.6 4.3-3.5 7.7-5.9 10.5l-1 1.2c0 0.7-0.2 1.6-1 1.7-0.4 0.1-1.2-0.2-1.8 0.4-0.3 0.4 0.7 1.2-0.1 0.6-0.7-0.5-1.4 0-2.2 0.2-0.6 0.2 0.4 0.8 0.6 1.2 0.2 0.4 0.4 0.8 0.3 1.3l-1.1-1.2c-1.3 0.7-2.1 2-3.2 3-0.5 0.4-0.3 1.1-0.3 1.7-0.7 0-1.5-0.2-1.9 0.2-0.3 0.4-0.2 1-0.2 1.6-1-0.1-1.1-1.6-2-1.3-0.9 0.2-1.9 0.3-2.7 0.8 0.6 1.2-1 0.5-0.8 0.7-1.5-0.9-2.8-1.6-4.4-1-3.4-1.1-7.6-0.6-10.7-0.2 0-0.5 0.1-1-0.1-1.1-0.2 0.5-0.8 0.3-0.7 0.3-1.9-1.3-3.8-2.1-5.8-3.2-1.8 0.2-3.5-0.7-4-1.2-1.4-1.3-3-0.6-4.3-0.9-2.8-0.7-3.8-3.6-4.1-5.6-0.2-1-1-1.4-1.3-1.3-1.3-4.2-3.3-8-4.9-11.9-0.4-1-0.3-2-0.3-3.1 0.5 0.2 1 0.1 0.9-0.6-0.5-3.3-1.7-5.8-3-8.2 0.7-3.4 0.8-7.4 2.4-10.4 1.4-2.7 4-4.1 5.8-6.4 0.6-0.8 0.6-1.9 1.2-2.6 2-2 4-4.1 6.2-5.9 1-0.8 2.2 0 3.7-0.3 0.5-1.8 2.5-3.4 4.4-2.9 0.8 0.2 2.4-1.9 2.9-2.1 0.8-0.3 0.4 0.8 0.4 1.5 1.9-1.5 4.5-2.3 6.9-3.2" fill="#f63030" fill-rule="nonzero" stroke="none" stroke-width="1" stroke-linecap="butt" stroke-linejoin="miter" stroke-miterlimit="10" stroke-dasharray="" stroke-dashoffset="0" font-family="none" font-weight="none" font-size="none" text-anchor="none" style="mix-blend-mode: normal" data-fill-palette-color="tertiary"></path></g><g transform="matrix(1,0,0,1,64,156.96804792959716)"><svg viewBox="0 0 192 46.063904140805704" height="46.063904140805704" width="192"><g><svg viewBox="0 0 192 46.063904140805704" height="46.063904140805704" width="192"><g><svg viewBox="0 0 303.83106791057503 72.89398535016332" height="46.063904140805704" width="192"><g transform="matrix(1,0,0,1,111.83106791057507,10.074349639566712)"><svg viewBox="0 0 191.99999999999997 52.745286071029895" height="52.745286071029895" width="191.99999999999997"><g id="textblocktransform"><svg viewBox="0 0 191.99999999999997 52.745286071029895" height="52.745286071029895" width="191.99999999999997" id="textblock"><g><svg viewBox="0 0 191.99999999999997 52.745286071029895" height="52.745286071029895" width="191.99999999999997"><g transform="matrix(1,0,0,1,0,0)"><svg width="191.99999999999997" viewBox="-0.08296294814800001 -39.2 144.61487468753998 39.733333333332006" height="52.745286071029895" data-palette-color="#f63030"><path d="M18.45-11.6L18.45-11.6Q16.3-11.8 14.03-12.18 11.75-12.55 9.75-13.1L9.75-13.1Q9.65-13.15 9.3-13.25 8.95-13.35 8.95-13.45L8.95-13.45Q8.95-13.6 9.3-13.65 9.65-13.7 9.75-13.7L9.75-13.7Q10.75-13.8 12.3-13.83 13.85-13.85 14.85-13.7L14.85-13.7Q15.8-13.55 17.07-13.45 18.35-13.35 19.65-13.4 20.95-13.45 22.18-13.65 23.4-13.85 24.3-14.25L24.3-14.25Q24.7-14.4 25.2-14.85 25.7-15.3 25.95-15.75L25.95-15.75Q24.35-14.7 22.4-14.45 20.45-14.2 18.32-14.35 16.2-14.5 14.03-14.8 11.85-15.1 9.75-15.2L9.75-15.2Q8.4-15.25 6.98-15.1 5.55-14.95 4.23-14.5 2.9-14.05 1.8-13.3 0.7-12.55 0-11.45L0-11.45Q-0.1-11.2-0.08-11.38-0.05-11.55-0.05-11.65L-0.05-11.65Q0.35-13.65 1.83-14.68 3.3-15.7 5.05-16.25L5.05-16.25Q5.7-18.95 6.55-21.6 7.4-24.25 8.13-26.75 8.85-29.25 9.33-31.6 9.8-33.95 9.75-36.15L9.75-36.15Q9.8-36.25 9.78-36.35 9.75-36.45 9.85-36.45L9.85-36.45Q9.95-36.5 9.98-36.33 10-36.15 10-36.1L10-36.1Q10.65-33.9 10.5-31.53 10.35-29.15 9.78-26.7 9.2-24.25 8.38-21.73 7.55-19.2 6.85-16.65L6.85-16.65 8.15-16.8Q8.4-17.95 8.68-19.15 8.95-20.35 9.25-21.25L9.25-21.25Q9.35-21.55 9.58-22.48 9.8-23.4 10.05-24.7 10.3-26 10.58-27.5 10.85-29 11.03-30.4 11.2-31.8 11.23-32.95 11.25-34.1 11.1-34.75L11.1-34.75Q11.1-35.2 11.15-35.2L11.15-35.2Q11.25-35.2 11.35-35.08 11.45-34.95 11.5-34.85L11.5-34.85Q12.05-34 12.33-32.8 12.6-31.6 12.68-30.28 12.75-28.95 12.63-27.65 12.5-26.35 12.25-25.4L12.25-25.4Q11.65-23.3 10.95-21.1 10.25-18.9 9.45-16.8L9.45-16.8 10.3-16.8 10.55-16.8Q10.75-17.65 11.05-18.5 11.35-19.35 11.6-20.2L11.6-20.2Q12.25-22.55 12.9-25.03 13.55-27.5 13.65-30.35L13.65-30.35Q13.65-30.6 13.7-30.6L13.7-30.6Q13.8-30.6 13.83-30.5 13.85-30.4 13.9-30.3L13.9-30.3Q14.35-29.2 14.33-27.5 14.3-25.8 14-23.93 13.7-22.05 13.23-20.13 12.75-18.2 12.35-16.65L12.35-16.65Q14.2-16.5 15.93-16.25 17.65-16 19.4-15.8L19.4-15.8Q20.05-18.5 20.88-21.13 21.7-23.75 22.43-26.23 23.15-28.7 23.63-31.05 24.1-33.4 24.05-35.55L24.05-35.55Q24.05-35.8 24.15-35.8L24.15-35.8Q24.25-35.8 24.3-35.7 24.35-35.6 24.35-35.55L24.35-35.55Q25-33.3 24.83-30.88 24.65-28.45 24.05-25.95 23.45-23.45 22.6-20.88 21.75-18.3 21.05-15.7L21.05-15.7Q21.35-15.6 21.68-15.65 22-15.7 22.35-15.7L22.35-15.7Q22.55-16.95 22.9-18.28 23.25-19.6 23.55-20.55L23.55-20.55Q23.65-20.85 23.88-21.78 24.1-22.7 24.35-24 24.6-25.3 24.88-26.8 25.15-28.3 25.33-29.73 25.5-31.15 25.53-32.3 25.55-33.45 25.4-34.1L25.4-34.1Q25.3-34.45 25.45-34.5L25.45-34.5Q25.55-34.55 25.65-34.43 25.75-34.3 25.8-34.2L25.8-34.2Q26.35-33.35 26.65-32.15 26.95-30.95 27.03-29.65 27.1-28.35 26.98-27.05 26.85-25.75 26.6-24.8L26.6-24.8Q26-22.55 25.2-20.25 24.4-17.95 23.55-15.7L23.55-15.7 24.8-15.9Q25.05-16.75 25.35-17.68 25.65-18.6 25.9-19.5L25.9-19.5Q26.6-21.9 27.23-24.38 27.85-26.85 27.95-29.65L27.95-29.65Q27.95-29.9 27.95-29.93 27.95-29.95 28-29.95L28-29.95Q28.1-29.95 28.2-29.65L28.2-29.65Q28.8-28.3 28.65-26.15 28.5-24 28.05-21.68 27.6-19.35 27-17.18 26.4-15 26.1-13.7L26.1-13.7Q25.55-11.3 24.7-8.75 23.85-6.2 23.2-4.3L23.2-4.3Q23.05-3.7 22.8-3.7L22.8-3.7Q22.7-3.75 22.73-4 22.75-4.25 22.75-4.5L22.75-4.5Q22.85-6.65 23.18-8.78 23.5-10.9 24.05-13.15L24.05-13.15Q22.8-12.3 21.2-11.9 19.6-11.5 18.45-11.6ZM8.45-5.15L8.45-5.15Q8.55-7.55 8.9-9.85L8.9-9.85Q8.05-9.95 7.23-10.08 6.4-10.2 5.6-10.35L5.6-10.35Q5.4-7.65 5.75-5.03 6.1-2.4 7.25-0.2L7.25-0.2Q7.35 0 7.35 0L7.35 0Q7.35 0.25 7.05 0L7.05 0Q5.05-2.2 4.48-4.93 3.9-7.65 4.1-10.55L4.1-10.55 3-10.75Q2.75-10.75 2.58-10.85 2.4-10.95 2.4-11.05L2.4-11.05Q2.4-11.15 2.6-11.2 2.8-11.25 2.95-11.3L2.95-11.3Q5.8-11.9 8.65-11.75 11.5-11.6 14.45-11.25L14.45-11.25Q16.3-11.05 18.2-10.9 20.1-10.75 22.2-11.25L22.2-11.25Q22.4-11.3 22.45-11.2L22.45-11.2Q22.45-11.15 22.25-10.95L22.25-10.95Q21.4-10.15 19.95-9.85L19.95-9.85Q19.7-7.15 20-4.53 20.3-1.9 21.5 0L21.5 0Q21.65 0.15 21.5 0.15L21.5 0.15Q21.45 0.15 21.4 0.1 21.35 0.05 21.25 0L21.25 0Q20.3-0.8 19.73-1.88 19.15-2.95 18.85-4.2 18.55-5.45 18.48-6.83 18.4-8.2 18.45-9.6L18.45-9.6Q17.4-9.5 16.3-9.5 15.2-9.5 14.15-9.55 13.1-9.6 12.15-9.68 11.2-9.75 10.5-9.8L10.5-9.8Q10.1-8.45 9.65-7.23 9.2-6 8.9-5L8.9-5Q8.8-4.75 8.7-4.53 8.6-4.3 8.5-4.4L8.5-4.4Q8.4-4.4 8.43-4.65 8.45-4.9 8.45-5.15ZM22.1-2.9L22.1-2.9Q22.35-1.95 22.55-1.2 22.75-0.45 23.1 0L23.1 0Q23.15 0.05 23.2 0.13 23.25 0.2 23.15 0.25L23.15 0.25Q22.95 0.25 22.6 0L22.6 0Q22.05-0.4 21.63-0.9 21.2-1.4 20.95-2.9L20.95-2.9Q20.85-3.5 20.85-4.35 20.85-5.2 20.9-5.98 20.95-6.75 21.08-7.3 21.2-7.85 21.35-7.8L21.35-7.8Q21.45-7.8 21.5-7.55 21.55-7.3 21.6-7 21.65-6.7 21.68-6.4 21.7-6.1 21.7-5.95L21.7-5.95Q21.8-5.1 21.88-4.35 21.95-3.6 22.1-2.9ZM7.8-3.55L7.8-3.55Q8.1-1.75 8.75-0.2L8.75-0.2Q8.85 0.15 8.8 0.15L8.8 0.15Q8.55 0.15 8.25-0.15L8.25-0.15Q7.6-0.9 7.28-1.5 6.95-2.1 6.7-3.55L6.7-3.55Q6.6-4.1 6.58-4.95 6.55-5.8 6.6-6.6 6.65-7.4 6.78-7.95 6.9-8.5 7.05-8.5L7.05-8.5Q7.1-8.5 7.18-8.25 7.25-8 7.3-7.68 7.35-7.35 7.4-7.03 7.45-6.7 7.45-6.6L7.45-6.6Q7.55-5.75 7.63-5 7.7-4.25 7.8-3.55ZM1.7-11.6L1.7-11.6Q1.05-11.25 0.8-11 0.55-10.75 0.2-10.35L0.2-10.35Q0-10.1 0-10.2 0-10.3 0-10.45L0-10.45Q0.2-11.2 0.5-11.65 0.8-12.1 1.5-12.65L1.5-12.65Q1.85-12.95 2.48-13.15 3.1-13.35 3.7-13.43 4.3-13.5 4.75-13.48 5.2-13.45 5.2-13.3L5.2-13.3Q5.2-13.15 4.63-12.9 4.05-12.65 3.9-12.55L3.9-12.55Q3.3-12.3 2.75-12.08 2.2-11.85 1.7-11.6ZM45.35-13.85L45.35-13.85Q45.5-15.2 45.4-16.7 45.3-18.2 44.77-19.48 44.25-20.75 43.17-21.6 42.1-22.45 40.35-22.45L40.35-22.45Q38-22.45 36.25-21.18 34.5-19.9 33.25-18.03 32-16.15 31.3-14.03 30.6-11.9 30.4-10.15L30.4-10.15Q30.1-7.75 30.32-6 30.55-4.25 31.15-3.13 31.75-2 32.67-1.45 33.6-0.9 34.7-0.9L34.7-0.9Q36.25-0.85 37.97-1.78 39.7-2.7 41.2-4.38 42.7-6.05 43.82-8.47 44.95-10.9 45.35-13.85ZM29.25-10.4L29.25-10.4Q29.45-12.4 30.25-14.8 31.05-17.2 32.47-19.25 33.9-21.3 35.9-22.68 37.9-24.05 40.55-24.05L40.55-24.05Q42.55-24.05 43.85-23.1 45.15-22.15 45.85-20.68 46.55-19.2 46.75-17.48 46.95-15.75 46.75-14.2L46.75-14.2Q46.3-10.6 45-7.95 43.7-5.3 41.95-3.53 40.2-1.75 38.25-0.88 36.3 0 34.5 0L34.5 0Q33.15 0 32.07-0.6 31-1.2 30.27-2.48 29.55-3.75 29.27-5.73 29-7.7 29.25-10.4ZM34.85-3.35L34.85-3.35Q34.6-3.35 34.35-3.53 34.1-3.7 33.95-3.95 33.8-4.2 33.75-4.45 33.7-4.7 33.95-4.8L33.95-4.8Q34.1-4.85 34.35-4.45 34.6-4.05 34.9-4.05L34.9-4.05Q35.4-4.05 36.07-4.7 36.75-5.35 37.37-6.23 38-7.1 38.47-7.95 38.95-8.8 39.15-9.2L39.15-9.2Q39.35-9.6 39.55-10.23 39.75-10.85 39.92-11.5 40.1-12.15 40.22-12.78 40.35-13.4 40.4-13.85L40.4-13.85Q40.65-16.1 40.3-17.32 39.95-18.55 39.15-18.55L39.15-18.55Q38.55-18.55 37.9-18.18 37.25-17.8 36.67-17.2 36.1-16.6 35.65-15.88 35.2-15.15 35-14.4L35-14.4Q34.75-13.55 34.65-13.55L34.65-13.55Q34.5-13.55 34.5-14.4L34.5-14.4Q34.65-15.35 35.15-16.28 35.65-17.2 36.4-17.93 37.15-18.65 38.05-19.13 38.95-19.6 39.9-19.6L39.9-19.6Q40.85-19.6 41.32-18.93 41.8-18.25 42-17.28 42.2-16.3 42.17-15.28 42.15-14.25 42.05-13.65L42.05-13.65Q41.85-12.3 41.42-11.03 41-9.75 40.4-8.45L40.4-8.45Q40.1-7.85 39.5-6.98 38.9-6.1 38.12-5.3 37.35-4.5 36.47-3.93 35.6-3.35 34.85-3.35ZM36.45-2.4L36.45-2.4Q36.5-2.1 35.97-1.9 35.45-1.7 34.9-1.7L34.9-1.7Q33.35-1.75 32.52-2.7 31.7-3.65 31.37-4.95 31.05-6.25 31.07-7.65 31.1-9.05 31.2-10L31.2-10Q31.4-11.65 32-13.7 32.6-15.75 33.7-17.55 34.8-19.35 36.4-20.58 38-21.8 40.2-21.8L40.2-21.8Q41.65-21.8 42.52-21.05 43.4-20.3 43.82-19.2 44.25-18.1 44.32-16.82 44.4-15.55 44.25-14.5L44.25-14.5Q44.15-13.35 43.9-12.4 43.65-11.45 43.2-10.3L43.2-10.3Q43.05-9.95 42.8-9.5 42.55-9.05 42.25-9.1L42.25-9.1Q42.1-9.15 42.17-9.5 42.25-9.85 42.37-10.38 42.5-10.9 42.65-11.48 42.8-12.05 42.85-12.55L42.85-12.55Q42.95-13.4 42.97-14.68 43-15.95 42.77-17.15 42.55-18.35 41.95-19.2 41.35-20.05 40.15-20.05L40.15-20.05Q38.4-20.05 36.92-18.93 35.45-17.8 34.35-16.18 33.25-14.55 32.57-12.78 31.9-11 31.75-9.65L31.75-9.65Q31.65-8.85 31.7-7.65 31.75-6.45 32.07-5.28 32.4-4.1 33.15-3.25 33.9-2.4 35.2-2.35L35.2-2.35Q35.6-2.3 35.97-2.43 36.35-2.55 36.45-2.4ZM63.7-13.85L63.7-13.85Q63.84-15.2 63.75-16.7 63.65-18.2 63.12-19.48 62.6-20.75 61.52-21.6 60.45-22.45 58.7-22.45L58.7-22.45Q56.35-22.45 54.6-21.18 52.85-19.9 51.6-18.03 50.35-16.15 49.65-14.03 48.95-11.9 48.75-10.15L48.75-10.15Q48.45-7.75 48.67-6 48.9-4.25 49.5-3.13 50.1-2 51.02-1.45 51.95-0.9 53.05-0.9L53.05-0.9Q54.6-0.85 56.32-1.78 58.05-2.7 59.55-4.38 61.05-6.05 62.17-8.47 63.3-10.9 63.7-13.85ZM47.6-10.4L47.6-10.4Q47.8-12.4 48.6-14.8 49.4-17.2 50.82-19.25 52.25-21.3 54.25-22.68 56.25-24.05 58.9-24.05L58.9-24.05Q60.9-24.05 62.2-23.1 63.5-22.15 64.2-20.68 64.9-19.2 65.09-17.48 65.3-15.75 65.09-14.2L65.09-14.2Q64.65-10.6 63.34-7.95 62.05-5.3 60.3-3.53 58.55-1.75 56.6-0.88 54.65 0 52.85 0L52.85 0Q51.5 0 50.42-0.6 49.35-1.2 48.62-2.48 47.9-3.75 47.62-5.73 47.35-7.7 47.6-10.4ZM53.2-3.35L53.2-3.35Q52.95-3.35 52.7-3.53 52.45-3.7 52.3-3.95 52.15-4.2 52.1-4.45 52.05-4.7 52.3-4.8L52.3-4.8Q52.45-4.85 52.7-4.45 52.95-4.05 53.25-4.05L53.25-4.05Q53.75-4.05 54.42-4.7 55.1-5.35 55.72-6.23 56.35-7.1 56.82-7.95 57.3-8.8 57.5-9.2L57.5-9.2Q57.7-9.6 57.9-10.23 58.1-10.85 58.27-11.5 58.45-12.15 58.57-12.78 58.7-13.4 58.75-13.85L58.75-13.85Q59-16.1 58.65-17.32 58.3-18.55 57.5-18.55L57.5-18.55Q56.9-18.55 56.25-18.18 55.6-17.8 55.02-17.2 54.45-16.6 54-15.88 53.55-15.15 53.35-14.4L53.35-14.4Q53.1-13.55 53-13.55L53-13.55Q52.85-13.55 52.85-14.4L52.85-14.4Q53-15.35 53.5-16.28 54-17.2 54.75-17.93 55.5-18.65 56.4-19.13 57.3-19.6 58.25-19.6L58.25-19.6Q59.2-19.6 59.67-18.93 60.15-18.25 60.35-17.28 60.55-16.3 60.52-15.28 60.5-14.25 60.4-13.65L60.4-13.65Q60.2-12.3 59.77-11.03 59.35-9.75 58.75-8.45L58.75-8.45Q58.45-7.85 57.85-6.98 57.25-6.1 56.47-5.3 55.7-4.5 54.82-3.93 53.95-3.35 53.2-3.35ZM54.8-2.4L54.8-2.4Q54.85-2.1 54.32-1.9 53.8-1.7 53.25-1.7L53.25-1.7Q51.7-1.75 50.87-2.7 50.05-3.65 49.72-4.95 49.4-6.25 49.42-7.65 49.45-9.05 49.55-10L49.55-10Q49.75-11.65 50.35-13.7 50.95-15.75 52.05-17.55 53.15-19.35 54.75-20.58 56.35-21.8 58.55-21.8L58.55-21.8Q60-21.8 60.87-21.05 61.75-20.3 62.17-19.2 62.6-18.1 62.67-16.82 62.75-15.55 62.6-14.5L62.6-14.5Q62.5-13.35 62.25-12.4 62-11.45 61.55-10.3L61.55-10.3Q61.4-9.95 61.15-9.5 60.9-9.05 60.6-9.1L60.6-9.1Q60.45-9.15 60.52-9.5 60.6-9.85 60.72-10.38 60.85-10.9 61-11.48 61.15-12.05 61.2-12.55L61.2-12.55Q61.3-13.4 61.32-14.68 61.35-15.95 61.12-17.15 60.9-18.35 60.3-19.2 59.7-20.05 58.5-20.05L58.5-20.05Q56.75-20.05 55.27-18.93 53.8-17.8 52.7-16.18 51.6-14.55 50.92-12.78 50.25-11 50.1-9.65L50.1-9.65Q50-8.85 50.05-7.65 50.1-6.45 50.42-5.28 50.75-4.1 51.5-3.25 52.25-2.4 53.55-2.35L53.55-2.35Q53.95-2.3 54.32-2.43 54.7-2.55 54.8-2.4ZM80.24-25.4L80.24-25.4Q79.54-22.7 78.52-19.8 77.49-16.9 76.39-14.3L76.39-14.3Q76.34-14.2 76.14-13.83 75.94-13.45 75.84-13.5L75.84-13.5Q75.69-13.5 75.72-13.93 75.74-14.35 75.79-14.5L75.79-14.5Q75.84-15.1 75.99-16 76.14-16.9 76.32-17.85 76.49-18.8 76.72-19.7 76.94-20.6 77.14-21.25L77.14-21.25Q77.24-21.45 77.44-22.25 77.64-23.05 77.87-24.18 78.09-25.3 78.34-26.65 78.59-28 78.79-29.3L78.79-29.3 78.19-29.45Q77.94-27.7 77.47-25.88 76.99-24.05 76.42-22.23 75.84-20.4 75.29-18.53 74.74-16.65 74.29-14.8L74.29-14.8Q73.89-13.05 73.69-11.15 73.49-9.25 73.54-7.33 73.59-5.4 73.99-3.58 74.39-1.75 75.19-0.2L75.19-0.2Q75.34 0.15 75.29 0.15L75.29 0.15Q75.19 0.15 75.14 0.1L75.14 0.1 75.04 0Q73.64-1.65 72.97-3.58 72.29-5.5 72.12-7.55 71.94-9.6 72.19-11.7 72.44-13.8 72.89-15.8L72.89-15.8Q73.74-19.5 74.89-22.93 76.04-26.35 76.84-29.65L76.84-29.65Q73.84-30.15 71.22-30.58 68.59-31 66.34-30.55L66.34-30.55Q66.19-30.55 66.19-30.6L66.19-30.6Q66.19-30.7 66.27-30.73 66.34-30.75 66.39-30.8L66.39-30.8Q68.09-31.8 70.02-31.9 71.94-32 74.02-31.73 76.09-31.45 78.27-31.03 80.44-30.6 82.64-30.55L82.64-30.55Q83.99-30.5 85.47-30.78 86.94-31.05 88.32-31.63 89.69-32.2 90.82-33.15 91.94-34.1 92.64-35.4L92.64-35.4Q92.74-35.65 92.84-35.65L92.84-35.65 92.84-35.5 92.84-35.4Q92.29-33.5 91.14-32.27 89.99-31.05 88.52-30.3 87.04-29.55 85.37-29.28 83.69-29 82.09-29.05L82.09-29.05Q82.34-27.5 82.12-25.45 81.89-23.4 81.44-21.3 80.99-19.2 80.49-17.32 79.99-15.45 79.69-14.3L79.69-14.3Q79.09-11.9 78.29-9.4 77.49-6.9 76.84-5L76.84-5Q76.74-4.75 76.62-4.55 76.49-4.35 76.39-4.4L76.39-4.4Q76.29-4.45 76.32-4.67 76.34-4.9 76.34-5.15L76.34-5.15Q76.49-8.9 77.44-12.65 78.39-16.4 79.49-20.2L79.49-20.2Q80.09-22.3 80.67-24.45 81.24-26.6 81.49-29.05L81.49-29.05Q81.24-29.1 81.07-29.1 80.89-29.1 80.64-29.1L80.64-29.1Q80.64-28.1 80.57-27.15 80.49-26.2 80.24-25.4ZM81.59-36.05L81.59-36.05Q83.54-35.8 85.54-35.65 87.54-35.5 88.99-35.5L88.99-35.5Q89.49-35.5 89.49-35.35L89.49-35.35Q89.49-35.15 88.99-35L88.99-35Q86.44-34 83.62-34.1 80.79-34.2 77.89-34.65L77.89-34.65Q76.14-34.9 74.29-35.15 72.44-35.4 70.29-35.15L70.29-35.15Q70.09-35.1 70.09-35.2L70.09-35.2Q70.09-35.3 70.19-35.35 70.29-35.4 70.39-35.5L70.39-35.5Q71.34-36.2 72.84-36.43 74.34-36.65 75.97-36.63 77.59-36.6 79.09-36.4 80.59-36.2 81.59-36.05ZM74.09-34.5L74.09-34.5Q76.19-34.2 78.37-33.75 80.54-33.3 82.59-32.75L82.59-32.75Q82.69-32.65 83.02-32.58 83.34-32.5 83.34-32.35L83.34-32.35Q83.34-32.25 83.04-32.2 82.74-32.15 82.59-32.05L82.59-32.05Q82.14-31.95 81.47-31.95 80.79-31.95 80.07-31.98 79.34-32 78.64-32.05 77.94-32.1 77.44-32.2L77.44-32.2Q77.09-32.25 75.72-32.4 74.34-32.55 72.69-32.6 71.04-32.65 69.52-32.58 67.99-32.5 67.34-32.15L67.34-32.15Q67.14-32.05 67.09-32.05L67.09-32.05 67.04-32.05Q67.04-32.25 67.24-32.45L67.24-32.45Q67.74-33.1 68.62-33.55 69.49-34 70.44-34.25 71.39-34.5 72.37-34.55 73.34-34.6 74.09-34.5ZM75.74-3.55L75.74-3.55Q75.89-2.7 76.12-1.85 76.34-1 76.69-0.2L76.69-0.2Q76.89 0.2 76.74 0.2L76.74 0.2Q76.64 0.2 76.44 0.1L76.44 0.1Q76.34 0.05 76.29-0.05L76.29-0.05Q75.64-0.8 75.27-1.45 74.89-2.1 74.64-3.55L74.64-3.55Q74.54-4.1 74.52-4.95 74.49-5.8 74.54-6.6 74.59-7.4 74.69-7.95 74.79-8.5 74.99-8.5L74.99-8.5Q75.04-8.5 75.12-8.25 75.19-8 75.24-7.68 75.29-7.35 75.34-7.03 75.39-6.7 75.39-6.6L75.39-6.6Q75.49-5.75 75.57-5 75.64-4.25 75.74-3.55ZM90.24-34.85L90.24-34.85Q91.34-35.8 92.09-36.9L92.09-36.9Q92.19-37.1 92.29-37.1L92.29-37.1Q92.34-37.1 92.34-36.75L92.34-36.75Q92.34-36.55 92.29-36.4L92.29-36.4Q92.09-35.55 91.84-35.05 91.59-34.55 90.64-33.85L90.64-33.85Q90.29-33.55 89.69-33.27 89.09-33 88.54-32.8 87.99-32.6 87.57-32.58 87.14-32.55 87.09-32.75L87.09-32.75Q87.09-32.8 87.24-32.93 87.39-33.05 87.62-33.2 87.84-33.35 88.04-33.48 88.24-33.6 88.34-33.65L88.34-33.65Q88.84-33.9 89.32-34.2 89.79-34.5 90.24-34.85ZM103.19-15.8L103.19-15.8Q102.59-13.95 101.77-12.25 100.94-10.55 100.04-8.85L100.04-8.85Q99.94-8.75 99.74-8.38 99.54-8 99.39-8.1L99.39-8.1Q99.29-8.1 99.31-8.4 99.34-8.7 99.34-8.85L99.34-8.85Q99.39-9.25 99.56-10 99.74-10.75 99.97-11.58 100.19-12.4 100.42-13.18 100.64-13.95 100.79-14.4L100.79-14.4Q101.64-17.1 101.89-19.2 102.14-21.3 101.59-22.75L101.59-22.75Q101.49-23 101.59-23L101.59-23Q101.69-23 101.79-22.9 101.89-22.8 101.94-22.75L101.94-22.75Q102.49-22.15 102.84-21.23 103.19-20.3 103.34-19.33 103.49-18.35 103.44-17.4 103.39-16.45 103.19-15.8ZM104.54-19.4L104.54-19.4Q105.19-18.4 105.14-16.9 105.09-15.4 104.77-13.8 104.44-12.2 103.97-10.75 103.49-9.3 103.24-8.45L103.24-8.45Q102.74-6.8 102.04-5.08 101.34-3.35 100.79-2.1L100.79-2.1Q100.59-1.65 100.49-1.7L100.49-1.7Q100.34-1.75 100.31-1.93 100.29-2.1 100.29-2.2L100.29-2.2Q100.29-4.9 101.06-7.4 101.84-9.9 102.74-12.45L102.74-12.45Q103.29-14.1 103.74-15.73 104.19-17.35 104.19-19.3L104.19-19.3Q104.19-19.65 104.29-19.65L104.29-19.65Q104.34-19.65 104.39-19.58 104.44-19.5 104.54-19.4ZM94.54-3.7L94.54-3.7Q94.64-3.55 94.19-3.25 93.74-2.95 93.59-2.9L93.59-2.9Q91.39-2.1 90.17-2.85 88.94-3.6 88.42-5.1 87.89-6.6 87.89-8.43 87.89-10.25 88.09-11.7L88.09-11.7Q88.24-12.95 88.67-14.48 89.09-16 89.69-17.48 90.29-18.95 91.06-20.23 91.84-21.5 92.74-22.2L92.74-22.2Q92.84-22.25 92.97-22.35 93.09-22.45 93.19-22.45L93.19-22.45Q93.34-22.4 93.04-21.9L93.04-21.9Q92.74-21.4 92.31-20.5 91.89-19.6 91.44-18.43 90.99-17.25 90.56-15.95 90.14-14.65 89.89-13.35L89.89-13.35Q89.64-12.05 89.54-10.85 89.44-9.65 89.44-8.7 89.44-7.75 89.49-7.1 89.54-6.45 89.59-6.25L89.59-6.25Q89.94-4.7 90.92-3.98 91.89-3.25 93.54-3.55L93.54-3.55Q93.59-3.55 94.04-3.65 94.49-3.75 94.54-3.7ZM100.99 0.15L100.99 0.15Q101.19 0.35 101.19 0.45L101.19 0.45Q101.19 0.55 100.97 0.5 100.74 0.45 100.64 0.4L100.64 0.4Q100.24 0.2 99.64-0.18 99.04-0.55 98.74-1.5L98.74-1.5Q98.59-1.9 98.54-2.48 98.49-3.05 98.49-3.55 98.49-4.05 98.59-4.38 98.69-4.7 98.84-4.65L98.84-4.65Q98.94-4.6 99.06-4.2 99.19-3.8 99.29-3.35L99.29-3.35Q99.39-2.8 99.54-2.33 99.69-1.85 99.89-1.35L99.89-1.35Q100.14-0.8 100.39-0.48 100.64-0.15 100.99 0.15ZM96.39-2.6L96.39-2.6Q95.84-1.75 94.72-0.88 93.59 0 91.69 0L91.69 0Q90.19 0 89.11-0.8 88.04-1.6 87.36-2.8 86.69-4 86.42-5.43 86.14-6.85 86.14-8.15L86.14-8.15Q86.19-9.75 86.42-11.35 86.64-12.95 87.02-14.35 87.39-15.75 87.86-16.85 88.34-17.95 88.84-18.65L88.84-18.65Q88.94-18.7 89.06-18.88 89.19-19.05 89.29-18.95L89.29-18.95Q89.34-18.9 89.27-18.73 89.19-18.55 89.14-18.45L89.14-18.45Q88.69-16.95 88.27-15.28 87.84-13.6 87.59-11.9 87.34-10.2 87.34-8.55 87.34-6.9 87.64-5.5L87.64-5.5Q87.84-4.55 88.36-3.75 88.89-2.95 89.52-2.4 90.14-1.85 90.86-1.6 91.59-1.35 92.29-1.45L92.29-1.45Q93.74-1.65 94.49-2.27 95.24-2.9 95.56-3.78 95.89-4.65 95.97-5.68 96.04-6.7 96.19-7.75L96.19-7.75Q95.94-7.05 95.22-6.38 94.49-5.7 93.67-5.33 92.84-4.95 92.06-5 91.29-5.05 90.89-5.9L90.89-5.9Q90.39-7 90.34-8.3 90.29-9.6 90.39-11.15L90.39-11.15Q90.49-12.7 90.84-14.35 91.19-16 91.79-17.53 92.39-19.05 93.22-20.4 94.04-21.75 95.09-22.8L95.09-22.8 95.29-23Q95.44-23.15 95.59-23.15L95.59-23.15Q95.59-23.15 95.39-22.65L95.39-22.65Q93.94-19.95 92.94-17.07 91.94-14.2 91.74-11.25L91.74-11.25Q91.49-8 92.06-7 92.64-6 93.49-6.43 94.34-6.85 95.31-8.28 96.29-9.7 96.89-11.35L96.89-11.35Q97.44-12.85 98.06-14.45 98.69-16.05 99.22-17.68 99.74-19.3 100.02-20.85 100.29-22.4 100.14-23.75L100.14-23.75Q100.14-24 100.24-24L100.24-24Q100.29-24 100.29-23.95L100.29-23.95Q100.29-23.85 100.34-23.85L100.34-23.85Q100.39-23.8 100.39-23.75L100.39-23.75Q101.19-22.05 101.12-20.3 101.04-18.55 100.52-16.75 99.99-14.95 99.27-13.08 98.54-11.2 98.04-9.3L98.04-9.3Q97.74-8.1 97.59-6.78 97.44-5.45 97.54-4.15 97.64-2.85 98.09-1.68 98.54-0.5 99.39 0.3L99.39 0.3Q99.49 0.4 99.49 0.45L99.49 0.45Q99.49 0.55 99.37 0.53 99.24 0.5 99.14 0.45L99.14 0.45Q98.19 0.1 97.49-0.7 96.79-1.5 96.39-2.6ZM117.89-9.4L117.89-9.4Q117.24-8.2 116.44-6.83 115.64-5.45 114.89-4.85L114.89-4.85Q114.14-4.25 113.84-4.45 113.54-4.65 113.14-5.35L113.14-5.35Q112.74-5.95 112.74-5.95L112.74-5.95Q112.59-5.9 112.59-5.6 112.59-5.3 112.69-5.05L112.69-5.05Q112.99-4.05 113.41-3.68 113.84-3.3 114.64-3.55L114.64-3.55Q115.54-3.8 116.41-4.65 117.29-5.5 117.94-6.35L117.94-6.35Q119.44-8.4 120.31-10.7 121.19-13 121.29-15.4L121.29-15.4Q121.39-17.6 120.74-18.25 120.09-18.9 119.11-18.68 118.14-18.45 117.01-17.63 115.89-16.8 114.99-16.05L114.99-16.05Q115.29-16.8 115.81-17.5 116.34-18.2 117.01-18.73 117.69-19.25 118.51-19.53 119.34-19.8 120.19-19.7L120.19-19.7Q120.69-19.65 121.09-19.2 121.49-18.75 121.74-18.07 121.99-17.4 122.06-16.5 122.14-15.6 122.04-14.65L122.04-14.65Q121.79-12.75 121.31-10.85 120.84-8.95 120.09-7.35L120.09-7.35Q119.99-7.1 119.76-6.65 119.54-6.2 119.64-6.1L119.64-6.1Q119.74-6 120.11-6.43 120.49-6.85 120.69-7.05L120.69-7.05Q121.59-8.25 122.29-9.78 122.99-11.3 123.36-12.9 123.74-14.5 123.79-16.13 123.84-17.75 123.49-19.2L123.49-19.2Q123.19-20.45 122.26-20.9 121.34-21.35 120.24-21.2 119.14-21.05 118.04-20.5 116.94-19.95 116.24-19.3L116.24-19.3Q116.54-20.05 117.06-20.63 117.59-21.2 118.26-21.63 118.94-22.05 119.71-22.23 120.49-22.4 121.29-22.3L121.29-22.3Q122.69-22.15 123.41-21.2 124.14-20.25 124.41-19.03 124.69-17.8 124.66-16.48 124.64-15.15 124.54-14.25L124.54-14.25Q124.29-12.15 123.59-10.1 122.89-8.05 121.84-6.3L121.84-6.3Q120.99-4.9 119.61-3.55 118.24-2.2 116.64-1.4 115.04-0.6 113.34-0.58 111.64-0.55 110.14-1.8L110.14-1.8Q109.14-2.65 108.71-4.08 108.29-5.5 108.14-6.8L108.14-6.8Q107.89-9.05 108.21-11.33 108.54-13.6 109.19-15.55L109.19-15.55Q110.19-18.6 111.46-21.7 112.74-24.8 113.66-27.8 114.59-30.8 114.84-33.6 115.09-36.4 114.04-38.9L114.04-38.9Q113.99-39 113.96-39.1 113.94-39.2 113.89-39.2L113.89-39.2Q113.74-39.15 113.76-39.1 113.79-39.05 113.79-39L113.79-39Q114.09-36.6 113.59-34 113.09-31.4 112.16-28.6 111.24-25.8 110.09-22.83 108.94-19.85 107.89-16.7L107.89-16.7Q107.19-14.45 106.76-11.9 106.34-9.35 106.74-6.7L106.74-6.7Q107.29-3.1 109.69-1.35 112.09 0.4 115.69 0L115.69 0Q118.29-0.3 120.29-2.1 122.29-3.9 123.64-6.45L123.64-6.45Q124.64-8.4 125.36-10.58 126.09-12.75 126.24-15L126.24-15Q126.34-16.4 126.21-17.9 126.09-19.4 125.56-20.68 125.04-21.95 124.01-22.78 122.99-23.6 121.29-23.7L121.29-23.7Q120.29-23.75 119.06-23.2 117.84-22.65 117.14-21.9L117.14-21.9Q117.59-23.4 117.96-24.98 118.34-26.55 118.54-28 118.74-29.45 118.71-30.73 118.69-32 118.34-32.9L118.34-32.9Q118.24-33.3 118.14-33.3L118.14-33.3Q118.09-33.3 118.09-32.9L118.09-32.9Q117.99-29.7 117.04-26.83 116.09-23.95 115.14-21.35L115.14-21.35Q114.39-19.25 113.56-17.18 112.74-15.1 112.16-13.05 111.59-11 111.34-9.03 111.09-7.05 111.44-5.2L111.44-5.2Q111.49-5 111.61-4.73 111.74-4.45 111.84-4.45L111.84-4.45Q111.94-4.45 111.91-4.7 111.89-4.95 111.94-5.2L111.94-5.2Q112.19-6.95 112.89-9.43 113.59-11.9 114.54-14.4L114.54-14.4Q115.09-14.9 115.86-15.58 116.64-16.25 117.41-16.8 118.19-17.35 118.84-17.63 119.49-17.9 119.79-17.65L119.79-17.65Q120.19-17.25 120.09-16.18 119.99-15.1 119.61-13.8 119.24-12.5 118.74-11.28 118.24-10.05 117.89-9.4ZM116.44-27.35L116.44-27.35Q116.74-28.4 116.91-29.88 117.09-31.35 117.04-32.83 116.99-34.3 116.66-35.63 116.34-36.95 115.69-37.75L115.69-37.75Q115.59-37.85 115.49-37.98 115.39-38.1 115.29-38.1L115.29-38.1Q115.14-38.1 115.34-37.6L115.34-37.6Q115.79-36.6 115.64-34.63 115.49-32.65 115.04-30.4 114.59-28.15 113.99-26 113.39-23.85 112.89-22.6L112.89-22.6Q112.59-21.9 112.26-20.9 111.94-19.9 111.64-18.88 111.34-17.85 111.06-16.88 110.79-15.9 110.64-15.2L110.64-15.2Q110.64-14.95 110.56-14.5 110.49-14.05 110.54-14.05L110.54-14.05Q110.79-13.95 110.96-14.4 111.14-14.85 111.29-14.95L111.29-14.95Q112.69-17.8 114.06-20.98 115.44-24.15 116.44-27.35ZM111.09-3.55L111.09-3.55Q111.54-2.8 112.24-2.33 112.94-1.85 113.64-1.7L113.64-1.7Q113.89-1.65 114.19-1.58 114.49-1.5 114.49-1.3L114.49-1.3Q114.44-1.15 114.04-1.05L114.04-1.05Q113.84-1 113.59-1L113.59-1Q112.74-1.05 111.91-1.3 111.09-1.55 110.19-2.75L110.19-2.75Q109.59-3.55 109.31-4.55 109.04-5.55 108.99-6.45 108.94-7.35 109.06-7.95 109.19-8.55 109.44-8.5L109.44-8.5Q109.49-8.5 109.59-8.22 109.69-7.95 109.76-7.58 109.84-7.2 109.91-6.88 109.99-6.55 110.04-6.4L110.04-6.4Q110.24-5.55 110.39-5 110.54-4.45 111.09-3.55ZM141.74-20.4L141.74-20.4Q142.13-19.9 142.36-19.15 142.59-18.4 142.53-17.53 142.49-16.65 142.13-15.7 141.78-14.75 141.03-13.85L141.03-13.85Q139.59-12.15 137.86-11.23 136.13-10.3 134.74-10.3L134.74-10.3Q133.88-10.3 134.74-10.6L134.74-10.6Q135.19-10.75 135.81-11.08 136.44-11.4 137.13-11.88 137.84-12.35 138.56-13 139.28-13.65 139.88-14.5L139.88-14.5Q140.88-15.9 141.06-17.23 141.24-18.55 140.53-19.25L140.53-19.25Q139.94-19.85 139.13-19.93 138.34-20 136.74-19.05L136.74-19.05Q135.28-18.2 134.13-16.95 132.99-15.7 131.99-14.3L131.99-14.3Q131.44-13.6 131.26-13.6 131.09-13.6 131.38-14.5L131.38-14.5Q131.99-16.25 133.06-17.75 134.13-19.25 135.63-20.3L135.63-20.3Q136.74-21.05 137.66-21.35 138.59-21.65 139.36-21.6 140.13-21.55 140.74-21.23 141.34-20.9 141.74-20.4ZM144.44-16.9L144.44-16.9Q144.24-15.7 143.81-14.88 143.38-14.05 142.86-13.48 142.34-12.9 141.81-12.55 141.28-12.2 140.88-11.9L140.88-11.9Q140.69-11.75 140.59-11.85 140.49-11.95 140.74-12.2L140.74-12.2Q141.63-12.95 142.56-14.23 143.49-15.5 143.53-17.05L143.53-17.05Q143.53-19.7 142.24-21.1L142.24-21.1Q140.94-22.5 138.99-22.33 137.03-22.15 134.94-20.8L134.94-20.8Q133.59-19.95 132.56-18.82 131.53-17.7 130.78-16.43 130.03-15.15 129.56-13.8 129.09-12.45 128.88-11.1L128.88-11.1Q128.69-9.8 128.51-8.3 128.34-6.8 128.51-5.35 128.69-3.9 129.44-2.58 130.19-1.25 131.78-0.3L131.78-0.3Q132.03-0.15 132.31-0.1 132.59-0.05 132.59 0L132.59 0Q132.59 0.1 132.34 0.13 132.09 0.15 131.78 0.05L131.78 0.05Q130.53-0.2 129.66-0.98 128.78-1.75 128.24-2.75 127.69-3.75 127.39-4.85 127.09-5.95 127.03-6.85L127.03-6.85Q126.73-10.8 128.13-14.65L128.13-14.65Q128.44-15.45 128.91-16.45 129.38-17.45 130.09-18.48 130.78-19.5 131.74-20.48 132.69-21.45 133.88-22.2L133.88-22.2Q135.03-22.9 136.28-23.25 137.53-23.6 138.78-23.58 140.03-23.55 141.13-23.13 142.24-22.7 143.09-21.85L143.09-21.85Q143.84-21.05 144.26-19.8 144.69-18.55 144.44-16.9ZM139.88-18.7L139.88-18.7Q140.49-18 140.03-16.53 139.59-15.05 137.94-13.55L137.94-13.55Q137.03-12.7 136.19-12.18 135.34-11.65 134.03-11.25L134.03-11.25Q133.49-9.35 133.34-7.5 133.19-5.65 133.44-4.5L133.44-4.5Q133.49-4.05 133.76-3.63 134.03-3.2 134.56-2.98 135.09-2.75 135.94-2.8 136.78-2.85 138.03-3.35L138.03-3.35Q138.38-3.5 138.46-3.43 138.53-3.35 138.13-3.1L138.13-3.1Q137.24-2.4 136.24-2.13 135.24-1.85 134.36-1.95 133.49-2.05 132.86-2.55 132.24-3.05 132.03-3.9L132.03-3.9Q131.63-5.65 131.69-7.55 131.74-9.45 132.26-11.3 132.78-13.15 133.76-14.78 134.74-16.4 136.19-17.55L136.19-17.55Q138.88-19.7 139.88-18.7ZM139.38-2.75L139.38-2.75Q139.03-2.25 138.51-1.78 137.99-1.3 137.31-0.93 136.63-0.55 135.91-0.3 135.19-0.05 134.44-0.05L134.44-0.05Q133.13-0.05 132.01-0.63 130.88-1.2 130.28-2.95L130.28-2.95Q130.19-3.15 130.19-3.33 130.19-3.5 130.28-3.5L130.28-3.5Q130.49-3.6 130.69-3.38 130.88-3.15 131.09-2.9L131.09-2.9Q131.63-2.25 132.51-1.75 133.38-1.25 134.19-1.25L134.19-1.25Q135.69-1.25 136.78-1.7 137.88-2.15 138.88-2.9L138.88-2.9Q139.13-3.05 139.46-3.2 139.78-3.35 139.38-2.75ZM138.69-17.35L138.69-17.35Q138.49-17.75 137.24-16.7L137.24-16.7Q136.09-15.8 135.41-14.63 134.74-13.45 134.24-12.05L134.24-12.05Q135.19-12.5 135.99-13.08 136.78-13.65 137.49-14.2L137.49-14.2Q138.24-14.85 138.59-15.9 138.94-16.95 138.69-17.35Z" opacity="1" transform="matrix(1,0,0,1,0,0)" fill="#f63030" class="wordmark-text-0" data-fill-palette-color="primary" id="text-0"></path></svg></g></svg></g></svg></g></svg></g><g><svg viewBox="0 0 104.1342647859461 72.89398535016332" height="72.89398535016332" width="104.1342647859461"><g><svg xmlns="http://www.w3.org/2000/svg" viewBox="5.12 18.620000000000005 90 63.00000000000091" x="0" y="0" height="72.89398535016332" width="104.1342647859461" class="icon-icon-0" data-fill-palette-color="accent" id="icon-0"><g data-name="Livello 26" fill="#f63030" data-fill-palette-color="accent"><path d="M95.12 50.12v4.5a27 27 0 0 0-27 27h-4.5A31.55 31.55 0 0 1 95.12 50.12Zm-18 31.5h4.5a13.52 13.52 0 0 1 13.5-13.5v-4.5A18 18 0 0 0 77.12 81.62Zm-36-44.37L63.66 50.12 41.12 63Zm4.5 18l9-5.13-9-5.12Zm45 26.37h4.5v-4.5h-4.5Zm-6.74-63H16.38A11.27 11.27 0 0 0 5.12 29.87v40.5A11.26 11.26 0 0 0 16.38 81.62H54.62v-4.5H16.38a6.76 6.76 0 0 1-6.76-6.75V29.87a6.76 6.76 0 0 1 6.76-6.75h67.5a6.75 6.75 0 0 1 6.74 6.75V41.12h4.5V29.87A11.26 11.26 0 0 0 83.88 18.62Z" fill="#f63030" data-fill-palette-color="accent"></path></g></svg></g></svg></g></svg></g></svg></g></svg></g></svg></g><defs></defs></svg><rect width="320" height="360" fill="none" stroke="none" visibility="hidden"></rect></g></svg></g></svg>