<svg xmlns="http://www.w3.org/2000/svg" version="1.1" xmlns:xlink="http://www.w3.org/1999/xlink" xmlns:svgjs="http://svgjs.dev/svgjs" width="2000" height="1500" viewBox="0 0 2000 1500"><rect width="2000" height="1500" fill="#ffffff"></rect><g transform="matrix(0.75,0,0,0.75,249.090909090909,597.3717073369929)"><svg viewBox="0 0 396 81" data-background-color="#ffffff" preserveAspectRatio="xMidYMid meet" height="409" width="2000" xmlns="http://www.w3.org/2000/svg" xmlns:xlink="http://www.w3.org/1999/xlink"><g id="tight-bounds" transform="matrix(1,0,0,1,0.2400000000000091,-0.1971745535335856)"><svg viewBox="0 0 395.52 81.394195836191" height="81.394195836191" width="395.52"><g><svg viewBox="0 0 521.0681771557715 107.2307980770225" height="81.394195836191" width="395.52"><g transform="matrix(1,0,0,1,125.54817715577151,14.819885986042912)"><svg viewBox="0 0 395.52000000000004 77.59102610493667" height="77.59102610493667" width="395.52000000000004"><g id="textblocktransform"><svg viewBox="0 0 395.52000000000004 77.59102610493667" height="77.59102610493667" width="395.52000000000004" id="textblock"><g><svg viewBox="0 0 395.52000000000004 77.59102610493667" height="77.59102610493667" width="395.52000000000004"><g transform="matrix(1,0,0,1,0,0)"><svg width="395.52000000000004" viewBox="5.4 -37.35 193.44 37.95" height="77.59102610493667" data-palette-color="#2a2c35"><path d="M27.05-10.45L27.05-16.8 19.15-16.85Q14.2-16.85 11.3-16.8L11.3-16.8 11.3-10.45Q11.3-8.6 11.53-5.05 11.75-1.5 12.05-0.35L12.05-0.35 12.05 0 5.4 0 5.4-0.35Q6.15-3.25 6.15-10.5L6.15-10.5 6.15-24.5Q6.15-31.75 5.4-34.65L5.4-34.65 5.4-35 12.05-35 12.05-34.65Q11.75-33.5 11.53-29.93 11.3-26.35 11.3-24.5L11.3-24.5 11.3-19.95 27.05-19.95 27.05-24.5Q27.05-26.35 26.83-29.93 26.6-33.5 26.3-34.65L26.3-34.65 26.3-35 32.95-35 32.95-34.65Q32.2-31.75 32.2-24.5L32.2-24.5 32.2-10.5Q32.2-3.25 32.95-0.35L32.95-0.35 32.95 0 26.3 0 26.3-0.35Q26.6-1.5 26.83-5.05 27.05-8.6 27.05-10.45L27.05-10.45ZM51.9 0.6Q46.65 0.6 43.6-2.73 40.55-6.05 40.55-11.43 40.55-16.8 44.1-20.7 47.65-24.6 53.02-24.6 58.4-24.6 61.32-21.35 64.25-18.1 64.25-12.65 64.25-7.2 60.7-3.3 57.15 0.6 51.9 0.6ZM58.95-11.4L58.95-11.4Q58.95-16.35 57.4-19.05 55.85-21.75 51.9-21.75L51.9-21.75Q49.35-21.75 47.9-20.65L47.9-20.65Q47-19.5 46.42-17.15 45.85-14.8 45.85-12.65L45.85-12.65Q45.85-2.2 53.25-2.2L53.25-2.2Q55.55-2.2 57-3.25L57-3.25Q57.95-4.4 58.45-6.8 58.95-9.2 58.95-11.4ZM80 0.6Q74.75 0.6 71.7-2.73 68.65-6.05 68.65-11.43 68.65-16.8 72.2-20.7 75.75-24.6 81.12-24.6 86.5-24.6 89.42-21.35 92.35-18.1 92.35-12.65 92.35-7.2 88.8-3.3 85.25 0.6 80 0.6ZM87.05-11.4L87.05-11.4Q87.05-16.35 85.5-19.05 83.95-21.75 80-21.75L80-21.75Q77.45-21.75 76-20.65L76-20.65Q75.1-19.5 74.52-17.15 73.95-14.8 73.95-12.65L73.95-12.65Q73.95-2.2 81.35-2.2L81.35-2.2Q83.65-2.2 85.1-3.25L85.1-3.25Q86.05-4.4 86.55-6.8 87.05-9.2 87.05-11.4ZM94.39-30.7L94.04-30.7Q94.04-32.95 93.79-35.15L93.79-35.15Q103.84-35 106.72-35 109.59-35 119.64-35.15L119.64-35.15Q119.29-32.1 119.29-30.7L119.29-30.7 118.94-30.7Q113.39-32.1 109.49-32.2L109.49-32.2Q109.24-29.6 109.24-24.15L109.24-24.15 109.24-10.4Q109.24-3.65 109.99-0.35L109.99-0.35 109.99 0 103.44 0 103.44-0.35Q104.09-3.6 104.09-10.2L104.09-10.2 104.09-23.95Q104.09-29.6 103.84-32.2L103.84-32.2Q100.04-32.1 94.39-30.7L94.39-30.7ZM128.44 0.55L128.44 0.55Q124.24 0.55 122.57-1.63 120.89-3.8 120.89-8.35L120.89-8.35 120.89-15.5Q120.89-20.25 119.39-23.65L119.39-23.65 119.39-24 126.34-24 126.34-23.65Q125.59-21 125.59-17L125.59-17 125.59-9.15Q125.59-6.15 126.34-4.85 127.09-3.55 129.99-3.55 132.89-3.55 136.79-6.3L136.79-6.3 136.79-15.5Q136.79-20.35 135.34-23.65L135.34-23.65 135.34-24 142.24-24 142.24-23.65Q141.49-21 141.49-17L141.49-17 141.49-8.55Q141.49-6.35 142.24-4.23 142.99-2.1 143.99-1.4L143.99-1.4 144.04-0.8 138.19 0.6Q137.34-1.7 136.99-3.8L136.99-3.8Q134.54-1.7 132.54-0.58 130.54 0.55 128.44 0.55ZM156.29-18L156.29-4.4Q159.59-2.7 162.49-2.7 165.39-2.7 166.44-3.3L166.44-3.3Q167.29-4.3 167.94-7.1 168.59-9.9 168.59-12.5L168.59-12.5Q168.59-20.85 163.39-20.85L163.39-20.85Q160.49-20.85 156.29-18L156.29-18ZM156.29-32.7L156.29-32.7 156.29-20.85Q160.44-24.55 164.56-24.55 168.69-24.55 171.31-21.3 173.94-18.05 173.94-13.4L173.94-13.4Q173.94-7.55 170.39-3.5 166.84 0.55 162.21 0.55 157.59 0.55 151.04-1.55L151.04-1.55 151.04-1.85Q151.59-3.35 151.59-8.7L151.59-8.7 151.59-29.35Q151.59-33.3 149.24-35.55L149.24-35.55 149.24-36.15 156.14-37.35 156.44-36.85Q156.29-35.4 156.29-32.7ZM189.49 0.55L189.49 0.55Q184.24 0.55 181.29-2.7 178.34-5.95 178.34-11.28 178.34-16.6 181.64-20.6 184.94-24.6 189.84-24.6L189.84-24.6Q198.79-24.6 198.79-13.55L198.79-13.55 196.94-11.75 183.64-11.75Q183.64-7.55 185.44-5.45 187.24-3.35 190.29-3.35L190.29-3.35Q191.49-3.35 193.69-4.08 195.89-4.8 197.59-5.8L197.59-5.8 198.84-3.9Q197.89-2.95 194.71-1.2 191.54 0.55 189.49 0.55ZM188.94-22.1L188.94-22.1Q186.84-22.1 185.69-21.15L185.69-21.15Q184.74-19.85 184.19-17.85 183.64-15.85 183.64-14.35L183.64-14.35 193.89-14.75Q193.89-22.1 188.94-22.1Z" opacity="1" transform="matrix(1,0,0,1,0,0)" fill="#2a2c35" class="wordmark-text-0" data-fill-palette-color="primary" id="text-0"></path></svg></g></svg></g></svg></g></svg></g><g><svg viewBox="0 0 107.23079807702248 107.2307980770225" height="107.2307980770225" width="107.23079807702248"><g><svg></svg></g><g id="icon-0"><svg viewBox="0 0 107.23079807702248 107.2307980770225" height="107.2307980770225" width="107.23079807702248"><g><path transform="scale(1.07231,1.07231)" d="M30 100c-16.569 0-30-13.431-30-30v-40c0-16.569 13.431-30 30-30h40c16.569 0 30 13.431 30 30v40c0 16.569-13.431 30-30 30z" fill="#da1616" fill-rule="nonzero" stroke="none" stroke-width="1" stroke-linecap="butt" stroke-linejoin="miter" stroke-miterlimit="10" stroke-dasharray="" stroke-dashoffset="0" font-family="none" font-weight="none" font-size="none" text-anchor="none" style="mix-blend-mode: normal" data-fill-palette-color="accent"></path></g><g transform="matrix(1,0,0,1,21.446159615404497,31.096931442336203)"><svg viewBox="0 0 64.33847884621349 45.03693519235009" height="45.03693519235009" width="64.33847884621349"><g><svg xmlns="http://www.w3.org/2000/svg" viewBox="5.12 18.620000000000005 90 63.00000000000091" x="0" y="0" height="45.03693519235009" width="64.33847884621349" class="icon-cg-0" data-fill-palette-color="quaternary" id="cg-0"><g data-name="Livello 26" fill="#ffffff" data-fill-palette-color="quaternary"><path d="M95.12 50.12v4.5a27 27 0 0 0-27 27h-4.5A31.55 31.55 0 0 1 95.12 50.12Zm-18 31.5h4.5a13.52 13.52 0 0 1 13.5-13.5v-4.5A18 18 0 0 0 77.12 81.62Zm-36-44.37L63.66 50.12 41.12 63Zm4.5 18l9-5.13-9-5.12Zm45 26.37h4.5v-4.5h-4.5Zm-6.74-63H16.38A11.27 11.27 0 0 0 5.12 29.87v40.5A11.26 11.26 0 0 0 16.38 81.62H54.62v-4.5H16.38a6.76 6.76 0 0 1-6.76-6.75V29.87a6.76 6.76 0 0 1 6.76-6.75h67.5a6.75 6.75 0 0 1 6.74 6.75V41.12h4.5V29.87A11.26 11.26 0 0 0 83.88 18.62Z" fill="#ffffff" data-fill-palette-color="quaternary"></path></g></svg></g></svg></g></svg></g></svg></g></svg></g><defs></defs></svg><rect width="395.52" height="81.394195836191" fill="none" stroke="none" visibility="hidden"></rect></g></svg></g></svg>