<svg xmlns="http://www.w3.org/2000/svg" version="1.1" xmlns:xlink="http://www.w3.org/1999/xlink" xmlns:svgjs="http://svgjs.dev/svgjs" width="2000" height="1999" viewBox="0 0 2000 1999"><g transform="matrix(1,0,0,1,-0.431486880466764,-0.4312711370263287)"><svg viewBox="0 0 343 343" data-background-color="#ffffff" preserveAspectRatio="xMidYMid meet" height="1999" width="2000" xmlns="http://www.w3.org/2000/svg" xmlns:xlink="http://www.w3.org/1999/xlink"><g id="tight-bounds" transform="matrix(1,0,0,1,0.0740000000000407,0.07400000000001228)"><svg viewBox="0 0 342.85155851775386 342.85155851775386" height="342.85155851775386" width="342.85155851775386"><g><svg></svg></g><g><svg viewBox="0 0 342.85155851775386 342.85155851775386" height="342.85155851775386" width="342.85155851775386"><g><path d="M0 171.426c0-94.676 76.75-171.426 171.426-171.426 94.676 0 171.426 76.75 171.426 171.426 0 94.676-76.75 171.426-171.426 171.426-94.676 0-171.426-76.75-171.426-171.426zM171.426 338.964c92.529 0 167.539-75.01 167.538-167.538 0-92.529-75.01-167.539-167.538-167.539-92.529 0-167.539 75.01-167.539 167.539 0 92.529 75.01 167.539 167.539 167.538z" data-fill-palette-color="tertiary" fill="#77d4fc" stroke="transparent"></path><ellipse rx="164.56874808852186" ry="164.56874808852186" cx="171.42577925887693" cy="171.42577925887693" fill="#77d4fc" stroke="transparent" stroke-width="0" fill-opacity="1" data-fill-palette-color="tertiary"></ellipse></g><g transform="matrix(1,0,0,1,64.84655864529837,115.00114429550683)"><svg viewBox="0 0 213.1584412271571 112.84926992674019" height="112.84926992674019" width="213.1584412271571"><g><svg viewBox="0 0 213.1584412271571 112.84926992674019" height="112.84926992674019" width="213.1584412271571"><g><svg viewBox="0 0 213.1584412271571 112.84926992674019" height="112.84926992674019" width="213.1584412271571"><g transform="matrix(1,0,0,1,0,69.74537610290155)"><svg viewBox="0 0 213.1584412271571 43.103893823838646" height="43.103893823838646" width="213.1584412271571"><g id="textblocktransform"><svg viewBox="0 0 213.1584412271571 43.103893823838646" height="43.103893823838646" width="213.1584412271571" id="textblock"><g><svg viewBox="0 0 213.1584412271571 43.103893823838646" height="43.103893823838646" width="213.1584412271571"><g transform="matrix(1,0,0,1,0,0)"><svg width="213.1584412271571" viewBox="2.75 -34.8 176.04 35.599999999999994" height="43.103893823838646" data-palette-color="#ffffff"><path d="M26.2-15.75L7.65-15.75 7.65-19.5 26.2-19.5 26.2-15.75ZM8.2 0.4L4.7 0.4Q4 0.4 3.58-0.2 3.15-0.8 2.95-1.75 2.75-2.7 2.75-3.65L2.75-3.65Q2.75-5.7 3-7.6 3.25-9.5 3.45-11.7L3.45-11.7 5.85-34.75 9.35-34.75Q10.65-34.75 11.08-33.77 11.5-32.8 11.5-31.45L11.5-31.45Q11.5-30.25 11.4-29.3 11.3-28.35 11.13-27 10.95-25.65 10.7-23.3L10.7-23.3 8.2 0.4ZM28.3 0.4L24.8 0.4Q24.1 0.4 23.68-0.2 23.25-0.8 23.05-1.75 22.85-2.7 22.85-3.65L22.85-3.65Q22.85-5.7 23.1-7.6 23.35-9.5 23.55-11.7L23.55-11.7 25.95-34.75 29.45-34.75Q30.75-34.75 31.18-33.77 31.6-32.8 31.6-31.45L31.6-31.45Q31.6-30.25 31.5-29.3 31.4-28.35 31.23-27 31.05-25.65 30.8-23.3L30.8-23.3 28.3 0.4ZM43.1 0.75L43.1 0.75Q38.8 0.75 36.42-1.78 34.05-4.3 34.05-9.2L34.05-9.2Q34.05-12.45 35.12-15.23 36.2-18 38.05-20.1 39.9-22.2 42.32-23.38 44.75-24.55 47.45-24.55L47.45-24.55Q51.75-24.55 54.02-22 56.3-19.45 56.3-14.3L56.3-14.3Q56.3-11.2 55.27-8.47 54.25-5.75 52.45-3.68 50.65-1.6 48.25-0.43 45.85 0.75 43.1 0.75ZM44.3-3L44.3-3Q46.2-3 47.57-4.4 48.95-5.8 49.67-8.25 50.4-10.7 50.4-13.75L50.4-13.75Q50.4-17 49.42-18.9 48.45-20.8 46.2-20.8L46.2-20.8Q44.35-20.8 42.92-19.4 41.5-18 40.72-15.58 39.95-13.15 39.95-10.05L39.95-10.05Q39.95-6.6 41.05-4.8 42.15-3 44.3-3ZM67.5 0.75L67.5 0.75Q63.2 0.75 60.82-1.78 58.45-4.3 58.45-9.2L58.45-9.2Q58.45-12.45 59.52-15.23 60.6-18 62.45-20.1 64.3-22.2 66.72-23.38 69.15-24.55 71.85-24.55L71.85-24.55Q76.15-24.55 78.42-22 80.7-19.45 80.7-14.3L80.7-14.3Q80.7-11.2 79.67-8.47 78.65-5.75 76.85-3.68 75.05-1.6 72.65-0.43 70.25 0.75 67.5 0.75ZM68.7-3L68.7-3Q70.6-3 71.97-4.4 73.35-5.8 74.07-8.25 74.8-10.7 74.8-13.75L74.8-13.75Q74.8-17 73.82-18.9 72.85-20.8 70.6-20.8L70.6-20.8Q68.75-20.8 67.32-19.4 65.9-18 65.12-15.58 64.35-13.15 64.35-10.05L64.35-10.05Q64.35-6.6 65.45-4.8 66.55-3 68.7-3ZM96.14 0.4L92.14 0.4Q91.34 0.4 90.99-0.73 90.64-1.85 90.64-3.2L90.64-3.2Q90.64-4.55 90.82-6.23 90.99-7.9 91.34-10.8L91.34-10.8 93.49-29.8 86.79-28.35Q86.19-28.25 85.77-28.18 85.34-28.1 85.14-28.1L85.14-28.1Q84.59-28.1 84.34-28.45 84.09-28.8 84.14-29.3L84.14-29.3Q84.19-30.55 84.52-31.6 84.84-32.65 85.34-33.33 85.84-34 86.44-34L86.44-34 97.19-34Q101.04-34 103.22-34.15 105.39-34.3 106.47-34.43 107.54-34.55 108.09-34.55L108.09-34.55Q108.59-34.55 108.79-34.35 108.99-34.15 109.04-33.55L109.04-33.55Q109.09-32.55 108.77-31.45 108.44-30.35 107.92-29.58 107.39-28.8 106.84-28.8L106.84-28.8Q106.49-28.8 105.79-28.93 105.09-29.05 104.19-29.15L104.19-29.15 99.44-29.8 96.14 0.4ZM111.14 0.65L111.14 0.65Q109.19 0.65 108.12-0.43 107.04-1.5 107.04-3.65L107.04-3.65Q107.04-4.4 107.07-5.15 107.09-5.9 107.22-6.95 107.34-8 107.54-9.65L107.54-9.65 109.44-24.55 112.94-24.55Q113.79-24.55 114.07-23.58 114.34-22.6 114.34-21.2L114.34-21.2Q114.34-20.15 114.19-18.45 114.04-16.75 113.74-14.7L113.74-14.7 113.14-10.6Q112.94-9.2 112.87-8.1 112.79-7 112.79-6.3L112.79-6.3Q112.79-5.3 113.02-4.78 113.24-4.25 113.89-4.25L113.89-4.25Q114.64-4.25 115.79-5.35 116.94-6.45 118.22-8.25 119.49-10.05 120.59-12.13 121.69-14.2 122.39-16.15 123.09-18.1 123.09-19.5L123.09-19.5Q123.09-20.65 122.82-21.43 122.54-22.2 122.59-22.7L122.59-22.7Q122.59-23.15 123.17-23.5 123.74-23.85 124.54-24.08 125.34-24.3 126.14-24.43 126.94-24.55 127.39-24.55L127.39-24.55Q128.24-24.55 128.72-23.55 129.19-22.55 128.99-20.7L128.99-20.7 126.64 0.5 123.14 0.5Q122.54 0.5 122.19-0.13 121.84-0.75 121.72-1.55 121.59-2.35 121.59-2.75L121.59-2.75Q121.59-3.9 121.92-5.25 122.24-6.6 122.87-8.7 123.49-10.8 124.39-14.1L124.39-14.1 124.39-13.25Q122.44-8.15 120.09-5.1 117.74-2.05 115.44-0.7 113.14 0.65 111.14 0.65ZM142.09 0.8L142.09 0.8Q141.69 0.8 140.46 0.53 139.24 0.25 137.71-0.23 136.19-0.7 134.89-1.2L134.89-1.2 137.94-5.25Q139.29-4.35 140.54-3.85 141.79-3.35 142.86-3.15 143.94-2.95 144.84-2.95L144.84-2.95Q146.54-2.95 147.84-4.33 149.14-5.7 149.89-8.15 150.64-10.6 150.64-13.7L150.64-13.7Q150.64-16.6 150.21-18.1 149.79-19.6 148.84-19.6L148.84-19.6Q148.39-19.6 147.34-18.88 146.29-18.15 144.84-16.38 143.39-14.6 141.66-11.55 139.94-8.5 138.09-3.85L138.09-3.85 136.59-8.3Q139.39-14.65 141.96-18.15 144.54-21.65 146.84-23.08 149.14-24.5 151.09-24.5L151.09-24.5Q153.89-24.5 155.09-22.15 156.29-19.8 156.29-15.85L156.29-15.85Q156.29-11 154.56-7.25 152.84-3.5 149.66-1.35 146.49 0.8 142.09 0.8ZM138.54-1.7L142.09 0.8Q139.04 0.8 136.96 0.25 134.89-0.3 133.91-1.25 132.94-2.2 133.04-3.4L133.04-3.4 136.54-34.8 140.04-34.8Q140.79-34.8 141.39-33.7 141.99-32.6 141.99-31.2L141.99-31.2Q141.99-29.5 141.76-28.1 141.54-26.7 141.04-24.5L141.04-24.5 137.54-9.45 138.54-1.7ZM166.54 0.8L166.54 0.8Q162.69 0.8 160.59-1.63 158.49-4.05 158.49-8.3L158.49-8.3Q158.49-11.85 159.49-14.8 160.49-17.75 162.29-19.95 164.09-22.15 166.51-23.35 168.94-24.55 171.79-24.55L171.79-24.55Q175.19-24.55 176.99-23.1 178.79-21.65 178.79-18.95L178.79-18.95Q178.79-16.2 176.96-14.15 175.14-12.1 171.71-10.65 168.29-9.2 163.54-8.2L163.54-8.2 162.89-11.2Q165.64-11.55 167.94-12.4 170.24-13.25 171.64-14.68 173.04-16.1 173.04-18.05L173.04-18.05Q173.04-19.4 172.51-20.1 171.99-20.8 170.64-20.8L170.64-20.8Q168.59-20.8 167.16-19.3 165.74-17.8 165.01-15.4 164.29-13 164.29-10.3L164.29-10.3Q164.29-6.65 165.41-5.43 166.54-4.2 168.74-4.2L168.74-4.2Q171.04-4.2 172.76-4.93 174.49-5.65 175.74-6.45L175.74-6.45Q176.14-6.7 176.44-6.85 176.74-7 176.94-7L176.94-7Q177.19-7 177.34-6.8 177.49-6.6 177.49-6.35L177.49-6.35Q177.49-5.45 176.69-4.25 175.89-3.05 174.41-1.9 172.94-0.75 170.94 0.03 168.94 0.8 166.54 0.8Z" opacity="1" transform="matrix(1,0,0,1,0,0)" fill="#ffffff" class="wordmark-text-0" data-fill-palette-color="quaternary" id="text-0"></path></svg></g></svg></g></svg></g></svg></g><g transform="matrix(1,0,0,1,92.53781931550724,0)"><svg viewBox="0 0 28.08280259614265 59.569581264545015" height="59.569581264545015" width="28.08280259614265"><g><svg xmlns="http://www.w3.org/2000/svg" xmlns:xlink="http://www.w3.org/1999/xlink" version="1.1" x="0" y="0" viewBox="19.5 1 33 70" enable-background="new 0 0 72 72" xml:space="preserve" height="59.569581264545015" width="28.08280259614265" class="icon-icon-0" data-fill-palette-color="quaternary" id="icon-0"><g fill="#ffffff" data-fill-palette-color="quaternary"><path fill="#ffffff" d="M19.5 1l0 2.3c0.6 1.6 8.2 22.1 7.6 54.4 0 0.3 0.2 0.6 0.4 0.7 1.8 0.9 8.9 4 17.5 0 0.3-0.1 0.4-0.4 0.5-0.7 0.2-4.8 2.2-44.5 6.9-54.4L52.5 1H19.5z" data-fill-palette-color="quaternary"></path><path fill="#ffffff" d="M36.3 63.9L36.3 63.9c-3.1 0-5.6-0.6-7.5-1.2-0.5-0.2-1 0.2-1 0.7v6c0 0.9 0.7 1.6 1.6 1.6h13.4c0.9 0 1.6-0.7 1.6-1.6v-5.8c0-0.5-0.5-0.9-1-0.7C41 63.5 38.6 63.9 36.3 63.9z" data-fill-palette-color="quaternary"></path></g></svg></g></svg></g><g></g></svg></g></svg></g></svg></g></svg></g><defs></defs></svg><rect width="342.85155851775386" height="342.85155851775386" fill="none" stroke="none" visibility="hidden"></rect></g></svg></g></svg>