<?xml version="1.0" encoding="UTF-8" standalone="no" ?>
<!DOCTYPE svg PUBLIC "-//W3C//DTD SVG 1.1//EN" "http://www.w3.org/Graphics/SVG/1.1/DTD/svg11.dtd">
<svg xmlns="http://www.w3.org/2000/svg" xmlns:xlink="http://www.w3.org/1999/xlink" version="1.1" width="1280" height="1024" viewBox="0 0 1280 1024" xml:space="preserve">
<desc>Created with Fabric.js 5.3.0</desc>
<defs>
</defs>
<g transform="matrix(1 0 0 1 640 512)" id="background-logo"  >
<rect style="stroke: none; stroke-width: 0; stroke-dasharray: none; stroke-linecap: butt; stroke-dashoffset: 0; stroke-linejoin: miter; stroke-miterlimit: 4; fill: rgb(255,255,255); fill-rule: nonzero; opacity: 1;"  paint-order="stroke"  x="-640" y="-512" rx="0" ry="0" width="1280" height="1024" />
</g>
<g transform="matrix(1.2893403794978482 0 0 1.2893403794978482 368.4348748499915 442.26579038879146)" id="logo-logo"  >
<g style=""  paint-order="stroke"   >
		<g transform="matrix(0.2557394603790881 0 0 -0.25573946037908807 10.443052630158718 -24.975617264658098)"  >
<path style="stroke: none; stroke-width: 1; stroke-dasharray: none; stroke-linecap: butt; stroke-dashoffset: 0; stroke-linejoin: miter; stroke-miterlimit: 10; fill: rgb(224,16,29); fill-rule: evenodd; opacity: 1;"  paint-order="stroke"  transform=" translate(-6161.525, -8268.315)" d="M 6031.78 8235.15 L 6291.2699999999995 8274.94 L 6291.2699999999995 8301.480000000001 L 6031.78 8261.660000000002 L 6031.78 8235.150000000001" stroke-linecap="round" />
</g>
		<g transform="matrix(0.2557394603790881 0 0 -0.25573946037908807 0 1.9152173031450275)"  >
<path style="stroke: none; stroke-width: 1; stroke-dasharray: none; stroke-linecap: butt; stroke-dashoffset: 0; stroke-linejoin: miter; stroke-miterlimit: 10; fill: rgb(224,16,29); fill-rule: evenodd; opacity: 1;"  paint-order="stroke"  transform=" translate(-6120.689999999999, -8163.165000000001)" d="M 6382.7 8434.18 L 6382.7 8018.320000000001 C 6382.7 7968.540000000001 6344.97 7932.6900000000005 6296.179999999999 7932.6900000000005 C 6247.409999999999 7932.6900000000005 6209.639999999999 7969.6900000000005 6209.639999999999 8013.580000000001 C 6209.639999999999 8057.470000000001 6245.719999999999 8091.930000000001 6291.2699999999995 8094.330000000001 L 6291.2699999999995 8219.630000000001 L 6031.78 8179.820000000001 L 6031.78 8000.76 C 6031.78 7950.96 5994.07 7915.1 5945.2699999999995 7915.1 C 5896.48 7915.1 5858.709999999999 7952.110000000001 5858.709999999999 7996.01 C 5858.709999999999 8039.91 5894.819999999999 8074.38 5940.3099999999995 8076.77 L 5940.3099999999995 8377.16 L 6016.129999999999 8448.23 L 6053.759999999999 8364.91 L 6104.799999999999 8481.84 L 6143.7699999999995 8378.35 L 6216.36 8479.130000000001 L 6249.929999999999 8376.660000000002 L 6291.499999999999 8499.29 C 6240.199999999999 8525.390000000001 6182.189999999999 8540.2 6120.709999999999 8540.2 C 5912.489999999999 8540.2 5743.639999999999 8371.390000000001 5743.639999999999 8163.160000000001 C 5743.639999999999 7954.930000000001 5912.49 7786.130000000001 6120.709999999999 7786.130000000001 C 6328.949999999999 7786.130000000001 6497.739999999999 7954.930000000001 6497.739999999999 8163.160000000001 C 6497.739999999999 8269.570000000002 6453.5999999999985 8365.630000000001 6382.699999999999 8434.18" stroke-linecap="round" />
</g>
		<g transform="matrix(0.2557394603790881 0 0 -0.25573946037908807 55.3442230618009 -82.86570739423968)"  >
<path style="stroke: none; stroke-width: 1; stroke-dasharray: none; stroke-linecap: butt; stroke-dashoffset: 0; stroke-linejoin: miter; stroke-miterlimit: 10; fill: rgb(224,16,29); fill-rule: evenodd; opacity: 1;"  paint-order="stroke"  transform=" translate(-6337.099999999999, -8494.68)" d="M 6382.7 8555.18 L 6310.429999999999 8555.18 L 6291.499999999999 8499.29 C 6325.129999999999 8482.160000000002 6355.829999999999 8460.17 6382.699999999999 8434.18 L 6382.699999999999 8555.18" stroke-linecap="round" />
</g>
</g>
</g>
<g transform="matrix(1.9211538461538462 0 0 1.9211538461538462 761.5918747156434 439.92582500417603)" id="text-logo"  >
<g style=""  paint-order="stroke"   >
		<g transform="matrix(1.0000000000000002 0 0 1 0 0)" id="text-logo-path-0"  >
<path style="stroke: none; stroke-width: 0.6511846631780327; stroke-dasharray: none; stroke-linecap: butt; stroke-dashoffset: 0; stroke-linejoin: miter; stroke-miterlimit: 4; fill: rgb(224,16,29); fill-rule: nonzero; opacity: 1;"  paint-order="stroke"  transform=" translate(-130.70000000000002, 16.924999999999997)" d="M 25.15 -34.2 L 25.15 -21.45 L 11.45 -21.45 L 11.45 -34.2 L 3.1 -34.2 L 3.1 0 L 11.45 0 L 11.45 -13.55 L 25.15 -13.55 L 25.15 0 L 33.45 0 L 33.45 -34.2 Z M 60.35 0.7 C 70.15 0.7 77.95 -7.25 77.95 -16.95 C 77.95 -26.8 70.1 -34.55 60.35 -34.55 C 50.55 -34.55 42.7 -26.65 42.7 -16.95 C 42.7 -7.3 50.6 0.7 60.35 0.7 Z M 51 -16.95 C 51 -22.05 55.3 -26.25 60.35 -26.25 C 65.5 -26.25 69.6 -22.05 69.6 -16.95 C 69.6 -11.85 65.5 -7.65 60.35 -7.65 C 55.25 -7.65 51 -11.9 51 -16.95 Z M 103.75 0.7 C 113.55 0.7 121.35 -7.25 121.35 -16.95 C 121.35 -26.8 113.5 -34.55 103.75 -34.55 C 93.95 -34.55 86.1 -26.65 86.1 -16.95 C 86.1 -7.3 94 0.7 103.75 0.7 Z M 94.4 -16.95 C 94.4 -22.05 98.7 -26.25 103.75 -26.25 C 108.9 -26.25 113 -22.05 113 -16.95 C 113 -11.85 108.9 -7.65 103.75 -7.65 C 98.65 -7.65 94.4 -11.9 94.4 -16.95 Z M 153.35 -26.3 L 153.35 -34.2 L 127.8 -34.2 L 127.8 -26.3 L 136.45 -26.3 L 136.45 0 L 144.75 0 L 144.75 -26.3 Z M 189.95 -11.5 L 189.95 -34.2 L 181.65 -34.2 L 181.65 -11.5 C 181.65 -8.6 178.85 -7.6 176.35 -7.6 C 174.05 -7.6 171.1 -8.8 171.1 -11.5 L 171.1 -34.2 L 162.8 -34.2 L 162.8 -11.5 C 162.8 -3.9 169.25 0.7 176.35 0.7 C 183.5 0.7 189.95 -4.05 189.95 -11.5 Z M 224.25 -18.4 C 225.4 -20.15 226 -22 226 -24.1 C 226 -29.5 221.7 -34.2 216.25 -34.2 L 200.85 -34.2 L 200.85 0 L 209.2 0 L 209.2 -0.05 L 217.1 -0.05 C 223 -0.05 227.4 -5.15 227.4 -10.85 C 227.4 -13.7 226.25 -16.4 224.25 -18.4 Z M 209.2 -7.9 L 209.2 -13.85 L 217.1 -13.85 C 218.55 -13.85 219.55 -12.25 219.55 -10.9 C 219.55 -9.55 218.6 -7.9 217.1 -7.9 Z M 209.2 -21.3 L 209.2 -26.3 L 216.25 -26.3 C 217.6 -26.3 218.4 -25.05 218.4 -23.8 C 218.4 -22.55 217.6 -21.4 216.25 -21.4 Z M 244.95 -7.85 L 244.95 -13.55 L 256.85 -13.55 L 256.85 -21.4 L 244.95 -21.4 L 244.95 -26.3 L 258.05 -26.3 L 258.05 -34.2 L 236.6 -34.2 L 236.6 0 L 258.3 0 L 258.3 -7.85 Z" stroke-linecap="round" />
</g>
</g>
</g>
</svg>